<?xml version="1.0" encoding="UTF-8"?><svg id="Layer_2" xmlns="http://www.w3.org/2000/svg" viewBox="0 0 135.6 250.68"><defs><style>.cls-1{fill:none;}</style></defs><g id="Layer_1-2"><path class="cls-1" d="m37.49,235.48l2.16,1.44c-2.47,5.61-7.98,10.23-15.82,10.23-10.77,0-20.15-9.18-20.15-23.77,0-12.68,10.72-32.54,10.72-46.22,0-3.22-1.53-6.31-4.83-6.31-5.27,0-5.97,6.84-6.59,11.44H.1c-1.07-14.03,6.64-24.99,17.63-24.99s16.58,9.52,16.58,20.35c0,.04,0,.09,0,.14h18.06l10.02-10.02,10.02,10.02h22.93c-4.94-7.32-12.18-12.7-19.73-15.63v-2.88c.49-.02.97-.03,1.46-.03,22.9,0,41.11,19.14,41.11,43.47s-19.05,47.96-46.78,47.96c-18.39,0-38.13-13.1-41.8-35.33l2.16-1.44c1.74,2.57,7.6,10.41,17.74,15.14l-14.07-33.02h45.53s11.13,26.44,11.13,26.44c5.92-5.95,9.63-14.17,9.63-23.85,0-6.16-1.46-11.75-3.92-16.65h-25.54l-9.86,9.86-9.86-9.86h-18.52c-1.71,14.24-10.16,40.22-10.16,47.26,0,5.21,2.61,9.91,7.81,9.91,2.86,0,4.87-1.64,5.83-3.66Zm29.07-2.68c8.34,0,16.2-2.73,22.36-7.53l-4.21-9.88h-36.68l6.6,15.64c3.56,1.1,7.54,1.77,11.93,1.77Z"/><path class="cls-1" d="m105.65,110.45l-3.24-4.66,3.38-2.69,12.94,18.69-13.08,15.42,3.59,5.75-3.46,2.56-6.47-10.07H31.02c-2.44,0-5.72,0-7.91,7.19h-2.16S3.69,118.21,3.69,118.21v-2.88h55.61l-17.51-18.69,13.27-15.86-4.8-5.92,3.26-2.65,5.23,6.45h42.84c15.45,0,34,5.21,34,31.3,0,1.56-.11,3.11-.33,4.65h-3.59c0-11.09-14.59-16.54-30.07-16.54h-38.23l-7.38,8.92,7.81,8.34h36.96l4.89-4.88Z"/><path class="cls-1" d="m105.76,62.46l-5.75-7.09h-39.52l-18.69-35.95,23.01-15.1h.72l20.13,32.35h6.47l12.22-17.97-12.94-16.54,3.6-2.16,25.16,30.92-16.53,22.25,5.38,6.64-3.26,2.65Zm-34.82-40.85l-17.64,12.19,1.62,2.88h25.57l-9.55-15.07Z"/></g></svg>